<svg xmlns="http://www.w3.org/2000/svg" version="1.1" xmlns:xlink="http://www.w3.org/1999/xlink" xmlns:svgjs="http://svgjs.dev/svgjs" viewBox="0 0 6.486215616768208 3.2120594706218233"><g transform="matrix(0.7989702681835763,0,0,0.7989702681835763,2.6003220469927077,1.1482197716417226)"><g clip-path="url(#SvgjsClipPath4514)"><g clip-path="url(#SvgjsClipPath45122d5b8e2d-648a-41a9-9486-25a1a2d69344)"><path d=" M -0.43986349270584935 -0.27329366443090547 C -0.49316825546956 -0.2847095376307311 -0.5470253991945682 -0.2949285854144537 -0.6008825429195763 -0.30376668079496477 C -0.6547396866445752 -0.31260477617547583 -0.6823587347086759 -0.3167476333850919 -0.7369523863820531 -0.3237444588946666 C -0.7472537810932052 -0.32557772671402163 -0.7547483518517735 -0.3345479124406089 -0.75472064063662 -0.3450111259040257 C -0.7550319733974202 -0.3497258517866096 -0.7532215952514505 -0.35433329189477564 -0.7497839936970905 -0.3575749679719488 C -0.7463463921427307 -0.360816644049122 -0.7416407565675602 -0.36235383864170523 -0.7369523863820531 -0.3617666817295797 C -0.6851206395150804 -0.35476985622000495 -0.6591587343348262 -0.35081112599748815 -0.6080634954162409 -0.34197303061696777 C -0.6183746066934992 -0.40107779347415007 -0.6286857179707668 -0.46015186850014456 -0.6389968292480344 -0.5191952556949604 C -0.6406165495790184 -0.5461293398203124 -0.6576579804072293 -0.5697003294079537 -0.6827269886828649 -0.5796809709553635 C -1.0363888952066302 -0.6453519829782852 -1.3991190676560046 -0.6453519829782852 -1.75278097417977 -0.5796809709553542 C -1.7778284904184725 -0.5696909412174767 -1.794837550929576 -0.5461150915217082 -1.7964190701210556 -0.5191952556949604 L -1.8273524039528581 -0.3420650941105127 C -1.7289365293511056 -0.35790001500060786 -1.6307047817364428 -0.3706047771100815 -1.5314603356927576 -0.3800873169454351 C -1.5265426809292313 -0.3803744333821239 -1.5217436201244823 -0.378506683719771 -1.5183138331949282 -0.37497082090579026 C -1.5148840462653648 -0.37143495809180954 -1.5131632930831205 -0.36658125003562253 -1.5136000179446456 -0.3616746182360254 C -1.5134125463707004 -0.351212323545097 -1.5210904047385356 -0.3422680143124627 -1.5314603356927576 -0.3408682686944004 C -1.632730178594469 -0.33166191933970024 -1.7334476405348922 -0.31904922072376224 -1.8340730389817888 -0.3033063633272214 L -1.8537746266008464 -0.29990001406597433 C -1.9105778021193491 -0.29023334724354005 -1.938841294638283 -0.2848016011242668 -1.9950920891955064 -0.2728333469631621 C -2.0179079234909 -0.26713130100573307 -2.034177181339402 -0.24699198874987704 -2.0349555819013654 -0.22348731442196829 L -2.0349555819013654 0.09100157953463184 C -2.0353209684360243 0.10133700344941898 -2.0311067151418736 0.11130692022510347 -2.023439102233294 0.11824681987152841 C -2.015771489324714 0.12518671951795335 -2.0054320872135953 0.12838920844471213 -1.9951841526890515 0.12699840551149089 C -1.4783691617454893 0.07176040240850945 -0.957138801117192 0.07176040240850945 -0.44032381017361133 0.12699840551150943 C -0.430067824777584 0.12838562422900268 -0.4197214667953115 0.12518496274526958 -0.4120403126164929 0.11824886278241042 C -0.4043591584376838 0.11131276281955116 -0.4001230919823229 0.10134546135846023 -0.40046031746774324 0.0910015795346133 L -0.40046031746774324 -0.2239476318897024 C -0.4012120111807569 -0.247309316945577 -0.417247325058439 -0.2673909249793179 -0.43986349270584935 -0.27329366443090547 Z" fill="#ffffff" transform="matrix(1,0,0,1,0,0)" fill-rule="nonzero"></path></g><g clip-path="url(#SvgjsClipPath45122d5b8e2d-648a-41a9-9486-25a1a2d69344)"><path d=" M -1.8601270076555787 0.5141253958766794 C -1.432887897492753 0.5616300463959649 -1.0016994304344045 0.5616300463959649 -0.5744603202715788 0.5141253958766794 C -0.563044447071744 0.4050608438546486 -0.5515671982095518 0.2959962918326272 -0.5400285736849935 0.18693173981060562 C -0.5393235056419337 0.1796926247864582 -0.5445047068632769 0.1732059240447713 -0.5517206373654631 0.1722936443366322 C -0.9947247251300777 0.13753960008054045 -1.4397705393035256 0.13753960008054045 -1.88277462706814 0.1722936443366322 C -1.8899905575703169 0.1732059240447713 -1.89517175879166 0.1796926247864582 -1.8944666907486005 0.18693173981060562 C -1.882928066224042 0.2960576674949936 -1.8714815051930471 0.405122219517015 -1.8601270076555787 0.5141253958766794 Z" fill="#ffffff" transform="matrix(1,0,0,1,0,0)" fill-rule="nonzero"></path></g><g clip-path="url(#SvgjsClipPath45122d5b8e2d-648a-41a9-9486-25a1a2d69344)"><path d=" M -1.791447641469507 1.1773508033893474 C -1.773034942760116 1.3582862560404005 -1.7546222440507062 1.5393444600161956 -1.736209545341306 1.7205254153167053 C -1.735574668516626 1.7270522711316794 -1.730823087832566 1.732434921125333 -1.7244254181672818 1.7338746218810215 C -1.388617194056872 1.7890204249796877 -1.0460621973638211 1.7890204249796877 -0.7102539732534205 1.7338746218810215 C -0.7038563035881455 1.732434921125333 -0.6991047229040857 1.7270522711316794 -0.6984698460794059 1.7205254153167053 C -0.6800571473700054 1.5395285870032858 -0.6616444486605957 1.3584703830274998 -0.6432317499511861 1.1773508033893474 C -1.025035813137962 1.1395251498766443 -1.409643578282731 1.1395251498766443 -1.791447641469507 1.1773508033893474 Z" fill="#ffffff" transform="matrix(1,0,0,1,0,0)" fill-rule="nonzero"></path></g></g><g><path d=" M 0.681 0.16499999999999992 C 0.681 0.10499999999999998 0.7455 0.07049999999999979 0.7455 0.038999999999999924 C 0.7455 0.025499999999999856 0.7335 0.013499999999999845 0.7125 0.013499999999999845 L 0.4485 0.013499999999999845 C 0.4275 0.013499999999999845 0.41550000000000004 0.025499999999999856 0.41550000000000004 0.038999999999999924 C 0.41550000000000004 0.07049999999999979 0.48 0.10499999999999998 0.48 0.16499999999999992 L 0.48 0.9704999999999999 C 0.48 0.9764999999999999 0.47550000000000003 0.9809999999999999 0.46950000000000003 0.9809999999999999 L 0.306 0.9809999999999999 C 0.3 0.9809999999999999 0.2955 0.9764999999999999 0.2955 0.9704999999999999 L 0.2955 0.16499999999999992 C 0.2955 0.10499999999999998 0.36 0.07049999999999979 0.36 0.038999999999999924 C 0.36 0.025499999999999856 0.34800000000000003 0.013499999999999845 0.327 0.013499999999999845 L 0.063 0.013499999999999845 C 0.042 0.013499999999999845 0.03 0.025499999999999856 0.03 0.038999999999999924 C 0.03 0.07049999999999979 0.0945 0.10499999999999998 0.0945 0.16499999999999992 L 0.0945 1.0305 C 0.0945 1.1084999999999998 0.159 1.146 0.23700000000000002 1.146 L 0.5325 1.146 C 0.624 1.146 0.681 1.083 0.681 1.023 M 1.074043212890625 0.9809999999999999 L 1.074043212890625 0.16499999999999992 C 1.074043212890625 0.10499999999999998 1.138543212890625 0.07049999999999979 1.138543212890625 0.038999999999999924 C 1.138543212890625 0.025499999999999856 1.126543212890625 0.013499999999999845 1.105543212890625 0.013499999999999845 L 0.8415432128906251 0.013499999999999845 C 0.820543212890625 0.013499999999999845 0.808543212890625 0.025499999999999856 0.808543212890625 0.038999999999999924 C 0.808543212890625 0.07049999999999979 0.873043212890625 0.10499999999999998 0.873043212890625 0.16499999999999992 L 0.873043212890625 0.9944999999999999 C 0.873043212890625 1.0545 0.808543212890625 1.089 0.808543212890625 1.1204999999999998 C 0.808543212890625 1.134 0.820543212890625 1.146 0.8415432128906251 1.146 L 1.315543212890625 1.146 C 1.351543212890625 1.146 1.366543212890625 1.131 1.366543212890625 1.095 L 1.366543212890625 0.7785 C 1.366543212890625 0.7619999999999999 1.3530432128906251 0.7499999999999999 1.3410432128906251 0.7499999999999999 C 1.3230432128906249 0.7499999999999999 1.2060432128906249 0.8294999999999999 1.182043212890625 0.8474999999999999 C 1.170043212890625 0.8564999999999999 1.1655432128906251 0.8639999999999999 1.1655432128906251 0.8864999999999998 L 1.1655432128906251 0.9809999999999999 M 1.727991943359375 0.17849999999999988 C 1.8209919433593749 0.17849999999999988 1.8209919433593749 0.1874999999999999 1.8509919433593751 0.22049999999999992 C 1.876491943359375 0.25049999999999983 1.888491943359375 0.26249999999999984 1.907991943359375 0.26249999999999984 C 1.931991943359375 0.26249999999999984 1.948491943359375 0.24599999999999989 1.948491943359375 0.22199999999999986 L 1.948491943359375 0.038999999999999924 C 1.948491943359375 0.014999999999999902 1.931991943359375 -2.220446049250313e-16 1.907991943359375 -2.220446049250313e-16 C 1.8989919433593752 -2.220446049250313e-16 1.883991943359375 0.0014999999999998348 1.858491943359375 0.0044999999999999485 C 1.8284919433593751 0.008999999999999897 1.789491943359375 0.013499999999999845 1.765491943359375 0.013499999999999845 L 1.489491943359375 0.013499999999999845 C 1.382991943359375 0.013499999999999845 1.363491943359375 -2.220446049250313e-16 1.339491943359375 -2.220446049250313e-16 C 1.315491943359375 -2.220446049250313e-16 1.306491943359375 0.010499999999999954 1.306491943359375 0.034499999999999975 L 1.306491943359375 0.23099999999999987 C 1.306491943359375 0.2489999999999999 1.316991943359375 0.26249999999999984 1.333491943359375 0.26249999999999984 C 1.354491943359375 0.26249999999999984 1.367991943359375 0.24749999999999994 1.400991943359375 0.21899999999999986 C 1.433991943359375 0.1904999999999999 1.442991943359375 0.17849999999999988 1.526991943359375 0.17849999999999988 L 1.526991943359375 0.9944999999999999 C 1.526991943359375 1.0545 1.462491943359375 1.089 1.462491943359375 1.1204999999999998 C 1.462491943359375 1.134 1.474491943359375 1.146 1.495491943359375 1.146 L 1.759491943359375 1.146 C 1.780491943359375 1.146 1.7924919433593751 1.134 1.7924919433593751 1.1204999999999998 C 1.7924919433593751 1.089 1.727991943359375 1.0545 1.727991943359375 0.9944999999999999 M 2.425489013671875 0.17849999999999988 C 2.440489013671875 0.17849999999999988 2.446489013671875 0.1844999999999999 2.446489013671875 0.19799999999999984 L 2.446489013671875 0.45299999999999985 C 2.446489013671875 0.4634999999999999 2.4434890136718748 0.4754999999999999 2.410489013671875 0.4979999999999999 L 2.261989013671875 0.5999999999999999 L 2.261989013671875 0.17849999999999988 M 2.645989013671875 1.011 C 2.635489013671875 0.9914999999999999 2.5724890136718748 0.8324999999999999 2.5109890136718747 0.6555 C 2.579989013671875 0.6119999999999999 2.647489013671875 0.5729999999999998 2.647489013671875 0.5084999999999998 L 2.647489013671875 0.15599999999999992 C 2.647489013671875 0.05699999999999994 2.584489013671875 0.011999999999999789 2.483989013671875 0.011999999999999789 L 2.029489013671875 0.013499999999999845 C 2.0084890136718747 0.013499999999999845 1.996489013671875 0.025499999999999856 1.996489013671875 0.038999999999999924 C 1.996489013671875 0.07049999999999979 2.060989013671875 0.10499999999999998 2.060989013671875 0.16499999999999992 L 2.060989013671875 0.9944999999999999 C 2.060989013671875 1.0545 1.996489013671875 1.089 1.996489013671875 1.1204999999999998 C 1.996489013671875 1.134 2.0084890136718747 1.146 2.029489013671875 1.146 L 2.293489013671875 1.146 C 2.3144890136718748 1.146 2.3264890136718748 1.134 2.3264890136718748 1.1204999999999998 C 2.3264890136718748 1.089 2.261989013671875 1.0545 2.261989013671875 0.9944999999999999 L 2.261989013671875 0.8264999999999999 C 2.261989013671875 0.8174999999999999 2.263489013671875 0.813 2.2679890136718748 0.8099999999999998 L 2.3234890136718747 0.7754999999999999 C 2.3234890136718747 0.7754999999999999 2.428489013671875 1.0439999999999998 2.428489013671875 1.0605 C 2.428489013671875 1.0935 2.3939890136718747 1.0979999999999999 2.3939890136718747 1.1204999999999998 C 2.3939890136718747 1.134 2.4074890136718747 1.146 2.428489013671875 1.146 L 2.687989013671875 1.146 C 2.704489013671875 1.146 2.719489013671875 1.134 2.719489013671875 1.1204999999999998 C 2.719489013671875 1.0875 2.690989013671875 1.0904999999999998 2.645989013671875 1.011 M 3.08852490234375 0.7424999999999999 L 3.18752490234375 0.32099999999999984 L 3.25952490234375 0.6509999999999999 M 3.54002490234375 0.9614999999999999 C 3.52352490234375 0.9015 3.33902490234375 0.16499999999999992 3.33902490234375 0.11849999999999983 C 3.33902490234375 0.08999999999999986 3.37802490234375 0.058499999999999774 3.37802490234375 0.04049999999999998 C 3.37802490234375 0.0239999999999998 3.3660249023437503 0.013499999999999845 3.34502490234375 0.013499999999999845 L 3.03452490234375 0.013499999999999845 C 3.0135249023437503 0.013499999999999845 3.00152490234375 0.0239999999999998 3.00152490234375 0.04049999999999998 C 3.00152490234375 0.058499999999999774 3.04052490234375 0.08999999999999986 3.04052490234375 0.11849999999999983 C 3.04052490234375 0.16499999999999992 2.83652490234375 0.966 2.82452490234375 1.0125 C 2.81102490234375 1.065 2.75252490234375 1.095 2.75252490234375 1.119 C 2.75252490234375 1.1355 2.76452490234375 1.146 2.78552490234375 1.146 L 3.05252490234375 1.146 C 3.07652490234375 1.146 3.08702490234375 1.134 3.08702490234375 1.119 C 3.08702490234375 1.095 3.03302490234375 1.0755 3.03302490234375 1.017 L 3.03302490234375 0.9764999999999999 L 3.30452490234375 0.8294999999999999 C 3.30452490234375 0.8294999999999999 3.35402490234375 1.0319999999999998 3.35402490234375 1.0425 C 3.35402490234375 1.0785 3.31502490234375 1.095 3.31502490234375 1.119 C 3.31502490234375 1.134 3.32552490234375 1.146 3.34952490234375 1.146 L 3.59552490234375 1.146 C 3.61652490234375 1.146 3.62852490234375 1.1355 3.62852490234375 1.119 C 3.62852490234375 1.095 3.56402490234375 1.053 3.54002490234375 0.9614999999999999" fill="#ffffff" fill-rule="nonzero"></path></g><g></g></g><defs><clipPath id="SvgjsClipPath4514"><path d=" M -2.034495264433622 -0.6289349400029938 h 1.634495264433622 v 2.4038698800059874 h -1.634495264433622 Z"></path></clipPath><clipPath id="SvgjsClipPath45122d5b8e2d-648a-41a9-9486-25a1a2d69344"><path d=" M -2.034495264433622 -0.6289349400029938 L -0.3999999999999999 -0.6289349400029938 L -0.3999999999999999 1.7749349400029937 L -2.034495264433622 1.7749349400029937 Z"></path></clipPath></defs></svg>